{
    "asset" : {
        "generator" : "Khronos glTF Blender I/O v1.7.33",
        "version" : "2.0"
    },
    "scene" : 0,
    "scenes" : [
        {
            "name" : "Scene",
            "nodes" : [
                0
            ]
        }
    ],
    "nodes" : [
        {
            "mesh" : 0,
            "name" : "path0",
            "rotation" : [
                0.5,
                0.5,
                -0.5,
                0.4999999701976776
            ],
            "scale" : [
                21.050987243652344,
                21.050987243652344,
                21.050987243652344
            ],
            "translation" : [
                0.028282083570957184,
                0,
                0
            ]
        }
    ],
    "materials" : [
        {
            "doubleSided" : true,
            "name" : "Material.002",
            "pbrMetallicRoughness" : {
                "baseColorFactor" : [
                    0,
                    0,
                    0,
                    1
                ],
                "metallicFactor" : 0
            }
        }
    ],
    "meshes" : [
        {
            "name" : "path0",
            "primitives" : [
                {
                    "attributes" : {
                        "POSITION" : 0,
                        "NORMAL" : 1,
                        "TEXCOORD_0" : 2
                    },
                    "indices" : 3,
                    "material" : 0
                }
            ]
        }
    ],
    "accessors" : [
        {
            "bufferView" : 0,
            "componentType" : 5126,
            "count" : 1774,
            "max" : [
                0.02416839823126793,
                0.0018246801337227225,
                0.011955659836530685
            ],
            "min" : [
                -0.023295963183045387,
                0,
                -0.01509927399456501
            ],
            "type" : "VEC3"
        },
        {
            "bufferView" : 1,
            "componentType" : 5126,
            "count" : 1774,
            "type" : "VEC3"
        },
        {
            "bufferView" : 2,
            "componentType" : 5126,
            "count" : 1774,
            "type" : "VEC2"
        },
        {
            "bufferView" : 3,
            "componentType" : 5123,
            "count" : 2556,
            "type" : "SCALAR"
        }
    ],
    "bufferViews" : [
        {
            "buffer" : 0,
            "byteLength" : 21288,
            "byteOffset" : 0
        },
        {
            "buffer" : 0,
            "byteLength" : 21288,
            "byteOffset" : 21288
        },
        {
            "buffer" : 0,
            "byteLength" : 14192,
            "byteOffset" : 42576
        },
        {
            "buffer" : 0,
            "byteLength" : 5112,
            "byteOffset" : 56768
        }
    ],
    "buffers" : [
        {
            "byteLength" : 61880,
            "uri" : "data:application/octet-stream;base64,"
        }
    ]
}
